<?xml version="1.0" standalone="no"?>
<!DOCTYPE svg PUBLIC "-//W3C//DTD SVG 20010904//EN"
 "http://www.w3.org/TR/2001/REC-SVG-20010904/DTD/svg10.dtd">
<svg version="1.0" xmlns="http://www.w3.org/2000/svg"
 width="139.000000pt" height="139.000000pt" viewBox="0 0 139.000000 139.000000"
 preserveAspectRatio="xMidYMid meet">
<metadata>
Created by potrace 1.14, written by Peter Selinger 2001-2017
</metadata>
<g transform="translate(0.000000,139.000000) scale(0.100000,-0.100000)"
fill="#000000" stroke="none">
<path d="M313 1197 c-29 -10 -66 -32 -84 -48 -18 -16 -34 -29 -35 -29 -2 0 -3
10 -2 23 2 47 2 47 -92 47 -79 0 -90 -2 -91 -17 0 -10 -1 -237 -2 -506 l-2
-487 93 0 c50 0 92 3 93 8 0 4 1 160 2 347 2 308 4 344 21 377 52 106 175 145
283 90 47 -25 68 -47 89 -97 14 -33 16 -87 15 -382 l0 -343 94 0 94 0 3 358 3
359 29 41 c71 104 232 119 317 29 53 -56 53 -58 56 -417 1 -184 2 -343 2 -353
1 -16 10 -17 93 -15 l92 3 0 325 c1 179 -2 348 -7 375 -28 181 -174 315 -357
329 -94 7 -213 -33 -285 -96 l-40 -35 -45 38 c-97 82 -239 114 -337 76z"/>
</g>
</svg>
